<svg id="Layer_1" xmlns="http://www.w3.org/2000/svg" viewBox="0 0 490.1 105.6"><style>.st11{fill:#000111}</style><circle cx="52.8" cy="52.8" r="52.8" fill="#f4b960"/><circle cx="47.5" cy="47.5" r="47.5" fill="#e66f32"/><circle cx="53.8" cy="41.1" r="41.1" fill="#e43c41"/><circle cx="57.1" cy="44.4" r="37.8" fill="#bdd041"/><circle cx="54.3" cy="47.2" r="35.1" fill="#6db54c"/><circle cx="48.8" cy="41.7" r="29.5" fill="#aedae6"/><circle cx="53.6" cy="36.8" r="24.7" fill="#56b8de"/><circle cx="56.6" cy="39.9" r="21.7" fill="#00b1d5"/><radialGradient id="SVGID_1_" cx="53.45" cy="63.02" r="18.57" gradientTransform="matrix(1 0 0 -1 0 106)" gradientUnits="userSpaceOnUse"><stop offset="0" stop-color="#797979"/><stop offset="1" stop-color="#4c4c4c"/></radialGradient><circle cx="53.5" cy="43" r="18.6" fill="url(#SVGID_1_)"/><circle cx="53.5" cy="43" r="18.6" fill="#221f1f"/><ellipse transform="matrix(.4094 -.9123 .9123 .4094 2.8913 76.9251)" cx="60.9" cy="36.2" rx="5.7" ry="3.7" fill="#fff"/><path class="st11" d="M122.5 32.6c0-.3.3-.6.6-.6H139.8c9.5 0 13.9 4.4 13.9 11 .2 3.7-1.8 7.2-5.2 8.8v.1c3.7 1.5 6.1 5.2 6 9.3 0 8.2-5.6 12.2-15.4 12.2h-16c-.3 0-.6-.2-.7-.5v-.1l.1-40.2zm17.1 16.5c3.9 0 6.4-2.2 6.4-5.4s-2.4-5.5-6.4-5.5h-8.9c-.2 0-.4.1-.4.3V48.8c0 .2.1.3.3.4h9v-.1zm-9 17.8h9.3c4.3 0 6.8-2.3 6.8-5.8s-2.4-5.7-6.7-5.7h-9.3c-.2 0-.4.1-.4.3V66.5c0 .3.1.4.3.4zM159.9 73.3c-.3 0-.6-.2-.7-.5V44.6c0-.3.3-.6.6-.6h6.1c.3 0 .6.2.7.5v2.6h.1c1.5-2.2 4.2-3.8 8.2-3.8 2.4 0 4.8.8 6.6 2.4.3.3.4.5.1.8l-3.5 4.1c-.2.3-.6.4-.9.2h-.1c-1.4-.9-3-1.4-4.7-1.4-4.1 0-6 2.7-6 7.4v15.9c0 .3-.3.6-.6.6H159.9zM182.9 65.8c-.8-2.3-1.1-4.8-1.1-7.2-.1-2.5.3-4.9 1.1-7.2 1.8-5.1 6.6-8.1 13.1-8.1s11.2 3 13 8.1c.8 2.3 1.1 4.8 1.1 7.2.1 2.5-.3 4.9-1.1 7.2-1.8 5.1-6.6 8.1-13 8.1s-11.3-2.9-13.1-8.1zm19-1.8c.5-1.7.8-3.6.7-5.4.1-1.8-.1-3.7-.7-5.4-.9-2.5-3.3-4-5.9-3.8-2.6-.2-5.1 1.4-6 3.8-.5 1.8-.8 3.6-.7 5.4-.1 1.8.1 3.7.7 5.4.9 2.5 3.4 4 6 3.8 2.6.2 5-1.3 5.9-3.8zM241.9 73.3c-.4 0-.7-.3-.8-.6L235 53.9h-.1l-6.2 18.7c-.1.4-.4.6-.8.6h-5.4c-.4 0-.7-.3-.8-.6l-10-28.1c-.1-.2 0-.5.2-.6.1 0 .2-.1.3 0h6.3c.4 0 .8.2.9.6l6.1 19.3h.1l6-19.3c.1-.4.5-.6.9-.6h4.7c.4 0 .7.2.9.6l6.4 19.3h.1l5.8-19.3c.1-.4.5-.7.9-.6h6.3c.2-.1.5.1.5.3v.3l-10 28.1c-.1.4-.4.6-.8.6l-5.4.1zM259.3 69.3c-.2-.2-.3-.6-.1-.8l.1-.1 3.7-3.6c.3-.2.7-.2.9 0 2.6 2.1 5.9 3.3 9.3 3.3 3.9 0 5.9-1.5 5.9-3.5 0-1.8-1.1-2.9-5.2-3.2l-3.4-.3c-6.4-.6-9.7-3.6-9.7-8.6 0-5.7 4.4-9.2 12.3-9.2 4.2-.1 8.4 1.2 11.9 3.6.3.2.3.5.2.8v.1l-3.2 3.6c-.2.3-.6.3-.9.1-2.5-1.5-5.4-2.4-8.3-2.4-3.1 0-4.8 1.3-4.8 3s1.1 2.7 5.2 3.1l3.4.3c6.6.6 9.8 3.8 9.8 8.6 0 5.8-4.6 9.9-13.3 9.9-5.1 0-9.9-1.6-13.8-4.7zM291.2 65.8c-.8-2.3-1.2-4.7-1.1-7.2-.1-2.5.3-4.9 1-7.2 1.8-5.1 6.6-8.1 12.9-8.1 6.5 0 11.2 3.1 13 8.1.7 2.1 1 4.1 1 8.8 0 .3-.3.6-.6.6h-19.6c-.2 0-.4.1-.4.3v.1c0 .8.2 1.5.5 2.2 1 2.9 3.5 4.4 7.1 4.4 2.7.1 5.4-.9 7.4-2.8.2-.3.7-.4 1-.1l3.9 3.2c.2.1.3.5.2.7 0 .1-.1.1-.1.1-2.7 2.9-7.2 5-13 5-6.6 0-11.4-3-13.2-8.1zm19.2-13c-.9-2.4-3.2-3.8-6.2-3.8s-5.4 1.4-6.2 3.8c-.3.8-.4 1.6-.4 2.5 0 .2.1.3.3.4h12.5c.2 0 .4-.1.4-.3v-.1c0-.8-.2-1.7-.4-2.5zM323.6 73.3c-.3 0-.6-.2-.7-.5V44.6c0-.3.3-.6.6-.6h6.1c.3 0 .6.2.7.5v2.6h.1c1.5-2.2 4.2-3.8 8.2-3.8 2.4 0 4.8.8 6.6 2.4.3.3.4.5.1.8l-3.5 4.1c-.2.3-.6.4-.9.2h-.1c-1.4-.9-3-1.4-4.7-1.4-4.1 0-6 2.7-6 7.4v15.9c0 .3-.3.6-.6.6H323.6zM346.5 68.5c-.3-.2-.4-.6-.2-.9l4.1-4.4c.2-.3.6-.3.9-.1 3.5 2.7 7.7 4.2 12.1 4.4 5.3 0 8.4-2.5 8.4-6 0-3-2-4.9-8.1-5.7l-2.4-.3c-8.6-1.1-13.5-4.9-13.5-11.8 0-7.5 5.9-12.4 15.1-12.4 5.1-.1 10.1 1.4 14.5 4.2.3.1.4.4.2.7 0 .1-.1.1-.1.2l-3.1 4.5c-.2.3-.6.4-.9.2-3.2-2.1-6.9-3.2-10.7-3.2-4.5 0-7 2.3-7 5.5 0 2.9 2.2 4.8 8.2 5.6l2.4.3c8.6 1.1 13.3 4.9 13.3 12 0 7.3-5.7 12.8-16.8 12.8-6.6-.2-12.9-2.6-16.4-5.6zM393.3 73.8c-6.4 0-8.8-2.9-8.8-8.6V49.8c0-.2-.1-.3-.3-.4H382c-.3 0-.6-.2-.7-.5V44.7c0-.3.3-.6.6-.6h2.2c.2 0 .4-.1.4-.3v-8.1c0-.3.3-.6.6-.6h6.1c.3 0 .6.2.7.5v8.1c0 .2.1.3.3.4h4.3c.3 0 .6.2.7.5V48.8c0 .3-.3.6-.6.6h-4.3c-.2 0-.4.1-.4.3V65c0 2.1.9 2.7 3 2.7h1.6c.3 0 .6.2.7.5v5c0 .3-.3.6-.6.6H393.3zM421.2 73.3c-.3 0-.6-.2-.7-.5v-2.2c-1.5 2-4.5 3.4-8.9 3.4-5.8 0-10.6-2.8-10.6-8.9 0-6.4 4.9-9.3 12.7-9.3h6.4c.2 0 .4-.1.4-.3V54c0-3.3-1.7-4.9-7-4.9-2.6-.1-5.1.6-7.2 2-.3.2-.7.2-.9-.1v-.1l-2.4-4c-.2-.2-.1-.6.1-.8 2.6-1.7 6-2.9 11.2-2.9 9.6 0 13.2 3 13.2 10.2v19.1c0 .3-.3.6-.6.6H421.2v.2zm-.8-9.9v-2.2c0-.2-.1-.3-.3-.4h-5.3c-4.7 0-6.8 1.2-6.8 3.9 0 2.4 1.9 3.6 5.5 3.6 4.4.1 6.9-1.5 6.9-4.9zM433.1 65.8c-.7-2.3-1.1-4.8-1-7.2-.1-2.4.3-4.9 1-7.2 1.8-5.2 6.7-8.1 13.1-8.1 4.2-.2 8.2 1.5 11 4.6.2.2.2.6 0 .8l-.1.1-4.1 3.3c-.3.2-.7.2-.9-.1v-.1c-1.5-1.7-3.6-2.6-5.9-2.5-2.8 0-5 1.3-5.9 3.8-.5 1.8-.8 3.6-.7 5.4-.1 1.8.1 3.7.7 5.5.9 2.5 3.1 3.8 5.9 3.8 2.2.1 4.4-.9 5.9-2.6.2-.3.6-.3.9-.1l4.1 3.3c.3.2.3.5.1.8l-.1.1c-2.9 3-6.9 4.6-11 4.5-6.3 0-11.1-2.8-13-8.1zM482.8 73.3c-.4 0-.8-.2-1-.6l-8-12.3-4.3 4.6v7.7c0 .3-.3.6-.6.6h-6.1c-.3 0-.6-.2-.7-.5V32.6c0-.3.3-.6.6-.6h6.1c.3 0 .6.2.7.5V56.4l10.8-11.8c.3-.4.8-.6 1.2-.6h6.7c.2 0 .4.1.4.3 0 .1 0 .3-.1.3l-10.1 10.7L490 72.7c.1.2.1.4 0 .5-.1.1-.2.1-.3.1h-6.9z"/></svg>